Coordinates
version=1
nRows=6
nColumns=46
inDegrees=yes

Units are S.I. units (second, meters, Newtons, ...)
Angles are in degrees.

endheader
time	pelvis_tilt	pelvis_list	pelvis_rotation	pelvis_tx	pelvis_ty	pelvis_tz	bb_angle	bb_tx	bb_ty	bb_tz	hip_flexion_r	hip_adduction_r	hip_rotation_r	knee_angle_r	knee_angle_r_beta	ankle_angle_r	subtalar_angle_r	mtp_angle_r	crank_angle_r	hip_flexion_l	hip_adduction_l	hip_rotation_l	knee_angle_l	knee_angle_l_beta	ankle_angle_l	subtalar_angle_l	mtp_angle_l	crank_angle_l	lumbar_extension	lumbar_bending	lumbar_rotation	arm_flex_r	arm_add_r	arm_rot_r	elbow_flex_r	pro_sup_r	wrist_flex_r	wrist_dev_r	arm_flex_l	arm_add_l	arm_rot_l	elbow_flex_l	pro_sup_l	wrist_flex_l	wrist_dev_l
      7.50500000	    -12.34019426	     -5.91080618	      8.65851300	      0.16303081	      1.09158106	     -0.25748160	      0.00000000	      0.50000000	      0.00000000	      0.25000000	     81.67397249	     -5.96427032	     -0.43777076	    115.90610437	      2.02294314	    -23.08779345	    -18.70811862	      0.00000000	      0.00000000	     45.27147420	     -1.57038882	      6.77782264	     36.45929823	      0.63633480	    -12.91984554	    -20.04057170	      0.00000000	      0.00000000	    -69.49876216	      6.15961409	      1.35491909	     76.53887814	    -22.31385369	     26.03608794	     69.39746530	     50.36089877	      0.00000000	      0.00000000	     81.12713875	    -13.71662002	     28.24312365	     70.19959901	     47.65561075	      0.00000000	      0.00000000
      7.51000000	    -12.37324107	     -5.91636018	      8.71644457	      0.16301934	      1.09153601	     -0.25770485	      0.00000000	      0.50000000	      0.00000000	      0.25000000	     83.04462075	     -6.29347158	     -0.34762075	    117.00320749	      2.04209121	    -21.60924141	    -19.13923632	      0.00000000	      0.00000000	     44.13597336	     -1.93184887	      6.42612953	     35.48656492	      0.61935740	    -12.81110746	    -18.61903580	      0.00000000	      0.00000000	    -69.37616297	      6.40119767	      1.29503602	     76.65150031	    -22.37280799	     26.33096001	     69.34259707	     50.38769916	      0.00000000	      0.00000000	     80.92956509	    -13.87033418	     28.19802038	     70.09048416	     47.64027832	      0.00000000	      0.00000000
      7.51500000	    -12.35742279	     -5.82870483	      8.71721787	      0.16291553	      1.09166979	     -0.25775048	      0.00000000	      0.50000000	      0.00000000	      0.25000000	     84.32452874	     -6.50609775	     -0.13362130	    117.95590711	      2.05871895	    -20.25015485	    -19.10005402	      0.00000000	      0.00000000	     43.00409488	     -2.28299722	      5.93919259	     34.68660374	      0.60539544	    -12.38554618	    -16.80233843	      0.00000000	      0.00000000	    -69.29783138	      6.53707019	      1.14797219	     76.79956459	    -22.39681730	     26.85566340	     69.25314953	     50.43431077	      0.00000000	      0.00000000	     80.79353958	    -14.05654848	     28.09327554	     69.97981677	     47.62036765	      0.00000000	      0.00000000
      7.52000000	    -12.25012648	     -5.77064058	      8.61138367	      0.16288013	      1.09192408	     -0.25766272	      0.00000000	      0.50000000	      0.00000000	      0.25000000	     85.45428186	     -6.58096284	      0.06523646	    118.75020666	      2.07258209	    -18.86511170	    -18.74047010	      0.00000000	      0.00000000	     41.95043983	     -2.81069635	      5.15271373	     34.27824969	      0.59826832	    -11.35404256	    -14.42712860	      0.00000000	      0.00000000	    -69.35419077	      6.64392802	      0.96830203	     77.29130257	    -22.44464077	     28.09077797	     68.88538888	     50.51988231	      0.00000000	      0.00000000	     80.68387248	    -14.39493837	     27.85562720	     69.94642822	     47.61320598	      0.00000000	      0.00000000
      7.52500000	    -12.30769905	     -5.72875632	      8.61103470	      0.16261967	      1.09223628	     -0.25792510	      0.00000000	      0.50000000	      0.00000000	      0.25000000	     86.66913220	     -6.82314909	      0.18591919	    119.32113117	      2.08254661	    -17.83395280	    -18.89817091	      0.00000000	      0.00000000	     41.07474918	     -3.13267792	      4.71039032	     33.79586047	      0.58984904	    -11.11478758	    -12.99735975	      0.00000000	      0.00000000	    -69.25472151	      6.84639997	      0.87490344	     77.62744418	    -22.49124337	     28.75291046	     68.65529072	     50.56253835	      0.00000000	      0.00000000	     80.51248502	    -14.58848588	     27.72591272	     69.93613774	     47.61587114	      0.00000000	      0.00000000
      7.53000000	    -12.33660770	     -5.66944525	      8.53998687	      0.16233960	      1.09274516	     -0.25810828	      0.00000000	      0.50000000	      0.00000000	      0.25000000	     87.77368576	     -6.94923954	      0.33828966	    119.73717438	      2.08980793	    -16.74374441	    -18.99058578	      0.00000000	      0.00000000	     40.27103629	     -3.49991978	      4.14654928	     33.54830723	      0.58552842	    -10.70999908	    -11.54861751	      0.00000000	      0.00000000	    -69.23807718	      7.02498689	      0.80061736	     78.11617772	    -22.48394814	     29.46101801	     68.41584292	     50.60741476	      0.00000000	      0.00000000	     80.40613083	    -14.85866178	     27.56651842	     69.91922531	     47.61741638	      0.00000000	      0.00000000
